<svg xmlns="http://www.w3.org/2000/svg" version="1.1" xmlns:xlink="http://www.w3.org/1999/xlink" xmlns:svgjs="http://svgjs.dev/svgjs" width="1440" height="560" preserveAspectRatio="none" viewBox="0 0 1440 560"><g mask="url(&quot;#SvgjsMask1034&quot;)" fill="none"><rect width="1440" height="560" x="0" y="0" fill="rgba(233, 233, 233, 1)"></rect><path d="M -452.1879214802906,478 C -356.19,420.2 -164.19,225.2 27.812078519709402,189 C 219.81,152.8 315.81,286.4 507.8120785197094,297 C 699.81,307.6 795.81,221.2 987.8120785197094,242 C 1179.81,262.8 1377.37,398.2 1467.8120785197093,401 C 1558.25,403.8 1445.56,285 1440,256" stroke="rgba(51, 121, 194, 0.58)" stroke-width="2"></path><path d="M -471.56586039970284,469 C -375.57,390.6 -183.57,94.4 8.43413960029718,77 C 200.43,59.6 296.43,375 488.43413960029716,382 C 680.43,389 776.43,88.4 968.4341396002972,112 C 1160.43,135.6 1354.12,482 1448.4341396002972,500 C 1542.75,518 1441.69,261.6 1440,202" stroke="rgba(51, 121, 194, 0.58)" stroke-width="2"></path></g><defs><mask id="SvgjsMask1034"><rect width="1440" height="560" fill="#ffffff"></rect></mask></defs></svg>